<?xml version="1.0" encoding="UTF-8" standalone="no"?>
<!-- Created with Inkscape (http://www.inkscape.org/) -->

<svg
   width="220mm"
   height="220mm"
   viewBox="0 0 220 220"
   version="1.1"
   id="svg5"
   xml:space="preserve"
   inkscape:version="1.2.2 (732a01da63, 2022-12-09)"
   sodipodi:docname="avesperu.svg"
   xmlns:inkscape="http://www.inkscape.org/namespaces/inkscape"
   xmlns:sodipodi="http://sodipodi.sourceforge.net/DTD/sodipodi-0.dtd"
   xmlns="http://www.w3.org/2000/svg"
   xmlns:svg="http://www.w3.org/2000/svg"><sodipodi:namedview
     id="namedview7"
     pagecolor="#ffffff"
     bordercolor="#000000"
     borderopacity="0.25"
     inkscape:showpageshadow="2"
     inkscape:pageopacity="0.0"
     inkscape:pagecheckerboard="0"
     inkscape:deskcolor="#d1d1d1"
     inkscape:document-units="mm"
     showgrid="false"
     inkscape:zoom="0.70910507"
     inkscape:cx="448.45258"
     inkscape:cy="484.4134"
     inkscape:window-width="1920"
     inkscape:window-height="1051"
     inkscape:window-x="-9"
     inkscape:window-y="-9"
     inkscape:window-maximized="1"
     inkscape:current-layer="layer1" /><defs
     id="defs2"><linearGradient
       id="linearGradient4317"
       inkscape:swatch="solid"><stop
         style="stop-color:#2d004c;stop-opacity:1;"
         offset="0"
         id="stop4315" /></linearGradient><rect
       x="631.66223"
       y="783.30676"
       width="27.364429"
       height="37.626091"
       id="rect532" /><rect
       x="628.2417"
       y="783.30676"
       width="12.54203"
       height="76.392365"
       id="rect526" /><filter
       inkscape:collect="always"
       style="color-interpolation-filters:sRGB"
       id="filter9885"
       x="-0.00085498256"
       y="-0.0011467203"
       width="1.00171"
       height="1.0022934"><feGaussianBlur
         inkscape:collect="always"
         stdDeviation="0.06216822"
         id="feGaussianBlur9887" /></filter></defs><g
     inkscape:label="Capa 1"
     inkscape:groupmode="layer"
     id="layer1"><path
       style="fill:#000000;stroke-width:0.284346"
       d="m 110.54744,205.5837 c -4.30818,-2.56943 -7.93662,-4.77273 -8.06321,-4.89623 -0.12657,-0.12351 0.4536,-0.55589 1.28929,-0.96085 0.83568,-0.40497 1.95027,-1.17657 2.47688,-1.71469 l 0.95746,-0.97842 2.46754,1.44014 c 1.35716,0.79207 3.92197,2.30731 5.6996,3.36719 l 3.23203,1.92706 0.76795,-0.54275 c 0.42238,-0.2985 8.80368,-5.43201 18.62511,-11.4078 9.82143,-5.97578 19.20714,-11.69858 20.85714,-12.71732 1.65,-1.01876 5.70001,-3.47873 9,-5.46665 3.29999,-1.98791 8.95715,-5.4233 12.57143,-7.6342 6.09777,-3.73006 15.73466,-9.58275 21.64286,-13.14418 l 2.49999,-1.50698 V 109.50429 67.660562 l -7.07142,0.005 c -15.81492,0.0121 -23.07522,0.94043 -27.10668,3.46599 -3.11612,1.95216 -6.31969,6.93897 -7.97647,12.416533 -1.26498,4.18223 -1.48933,7.400119 -1.30913,18.777885 0.10722,6.77106 -0.26825,9.88075 -1.70708,14.1372 -2.84916,8.42876 -9.68619,17.07486 -18.8112,23.78868 -1.15425,0.84926 -4.28935,3.04189 -6.96689,4.8725 -2.67753,1.83061 -5.53933,3.93437 -6.35956,4.675 l -1.49135,1.34661 -1.34649,-1.48332 c -0.74056,-0.81582 -1.71728,-2.01711 -2.17048,-2.66953 -1.11272,-1.60182 -3.22283,-5.8399 -3.81722,-7.66668 -0.26585,-0.81712 -0.5223,-1.48568 -0.56985,-1.48568 -0.0476,0 -0.68228,1.49628 -1.41047,3.32508 -1.61713,4.06132 -1.93756,4.65146 -9.71855,17.8989 -10.244132,17.44096 -15.020772,25.20095 -16.734562,27.18637 l -0.83794,0.97076 -0.0117,-2.00638 c -0.0208,-3.59073 1.64367,-8.43446 6.24024,-18.15967 5.251842,-11.1116 8.245772,-20.173 10.167062,-30.77149 0.42321,-2.33463 0.82549,-4.52938 0.89392,-4.8772 0.0807,-0.41003 0.39919,-0.69251 0.9058,-0.80333 4.77478,-1.04453 6.18218,-1.77422 9.34312,-4.84416 3.83448,-3.72408 8.12379,-9.73908 10.28629,-14.42471 l 1.05503,-2.28597 1.9056,-0.14579 c 1.04808,-0.0802 2.29133,-0.30353 2.76275,-0.49636 0.85558,-0.34997 0.85343,-0.35154 -1.16757,-0.85802 -7.56213,-1.89512 -14.56644,-7.50384 -20.22993,-16.199126 -1.34034,-2.057879 -3.66439,-6.708779 -3.46415,-6.932509 0.0398,-0.0444 0.76413,0.16932 1.60981,0.47489 1.91351,0.69143 7.2262,2.29666 7.56923,2.28707 0.37831,-0.011 -5.64857,-3.0338 -8.6031,-4.31553 C 103.87827,80.889602 96.345528,78.131052 88.142858,75.434782 80.571788,72.946442 76.183998,71.557292 55.8571,65.213612 37.0045,59.330017 30.26319,56.826416 26.284497,54.230874 23.48698,52.405882 18.351142,47.278957 15.925277,43.88963 12.735462,39.432945 10,33.38945 10,30.79883 c 0,-0.38456 0.266474,-1.034734 0.592166,-1.444828 0.518525,-0.652904 0.798931,-0.74563 2.254841,-0.74563 6.583183,0 29.541313,6.851508 44.912211,13.403372 6.56757,2.799437 18.94318,8.858333 26.6177,13.031585 20.204642,10.986883 37.496672,24.145293 51.272542,39.015975 1.51976,1.64054 1.77911,1.82246 1.77911,1.24789 0,-1.05863 -1.50528,-3.76838 -3.7994,-6.839549 l -2.10814,-2.82219 0.95026,-1.31009 c 1.43214,-1.97439 2.27052,-3.998183 3.65813,-8.830393 1.73854,-6.05432 3.06735,-8.53119 6.10418,-11.37815 2.47897,-2.323973 6.8195,-3.823991 11.06532,-3.823991 3.20726,0 4.89506,0.29586 9.98679,1.750614 7.07301,2.020817 8.2646,2.186497 18,2.502787 10.18679,0.33097 18.47213,1.12005 22.64057,2.15627 0.45993,0.11433 0.64514,0.0356 0.64514,-0.27418 0,-1.34755 -8.01058,-5.569516 -10.56733,-5.569516 -0.45173,0 -2.44635,-1.001027 -4.88385,-2.451033 -2.26613,-1.348077 -5.79167,-3.430489 -7.83453,-4.627598 C 179.24286,52.593065 171.01429,47.695982 163,42.907765 154.98571,38.119653 141.70436,30.20663 133.4859,25.323374 L 118.54321,16.444726 96.771608,29.407142 c -11.97439,7.129329 -22.03819,13.130037 -22.36404,13.334905 -0.52008,0.327002 -0.93877,0.226706 -3.42857,-0.821289 -1.55988,-0.656576 -2.9411,-1.292871 -3.06938,-1.413985 -0.12829,-0.121119 3.98599,-2.766938 9.14285,-5.879601 10.41051,-6.283758 30.687242,-18.392808 34.233242,-20.443735 1.25715,-0.727102 3.36231,-1.992 4.67817,-2.810885 1.31585,-0.818886 2.60156,-1.4343081 2.85714,-1.367602 0.4364,0.113899 25.251,14.805921 43.03611,25.480457 15.81943,9.494736 32.57907,19.393842 41.78573,24.680778 L 210,63.816787 v 45.452123 45.45213 l -9.2143,5.62721 c -5.06784,3.09497 -9.9857,6.09264 -10.92857,6.6615 -5.2101,3.14344 -12.45937,7.5282 -15.71427,9.50485 -2.04286,1.2406 -7.7643,4.71173 -12.71429,7.71364 -4.95,3.00189 -9.77144,5.94209 -10.71429,6.53377 -2.39928,1.50565 -31.01129,18.79562 -31.73837,19.1792 -0.51912,0.27387 -1.60019,-0.28503 -8.42855,-4.35749 z m 20.56073,-68.07867 c 6.67279,-3.74768 11.98832,-8.0384 15.87871,-12.81738 1.9182,-2.35634 4.44178,-6.1677 4.44178,-6.70842 0,-0.75987 -0.91478,0.0576 -2.19664,1.96304 -2.18264,3.24443 -4.86553,6.44281 -7.47351,8.90951 -2.47974,2.34539 -7.95309,6.50807 -10.84519,8.24816 -1.65006,0.9928 -2.03268,1.30718 -1.59086,1.30718 0.0987,0 0.9023,-0.40594 1.78571,-0.90209 z m 21.631,-23.08099 c 0.66123,-1.52202 1.83435,-4.9265 1.82105,-5.28482 -0.008,-0.24206 -2.56012,6.00998 -2.56012,6.27407 0,0.3622 0.36307,-0.12377 0.73907,-0.98925 z M 141.52592,83.203185 c 2.64275,-5.404403 3.90125,-7.332393 6.06684,-9.294383 2.58465,-2.34166 5.03496,-3.33544 10.16406,-4.12229 1.06388,-0.16321 2.52898,-1.09074 2.52898,-1.60106 0,-0.15564 -0.34086,-0.0174 -0.75746,0.30714 -0.66231,0.51601 -1.08653,0.5808 -3.37748,0.51577 l -2.62004,-0.0743 -2.8368,1.3883 c -3.70259,1.81202 -6.4042,4.38189 -7.91159,7.52577 -0.81715,1.7043 -3.08512,7.439373 -4.08994,10.342383 -0.50179,1.44971 0.84465,-0.92025 2.83343,-4.98726 z m -28.9544,-2.992613 c -3.29961,-1.93286 -9.76222,-5.23923 -9.92515,-5.07785 -0.19514,0.19328 11.78395,6.654643 12.35372,6.663453 0.15715,0.002 -0.93571,-0.71109 -2.42857,-1.585603 z m -22.000012,-8.70035 c 0,-0.19888 -10.01503,-6.42379 -13.12739,-8.159412 -3.70253,-2.064732 -13.34954,-6.775799 -19.8726,-9.704677 C 47.46949,49.110292 29.107763,41.283354 28.945613,41.443957 28.669978,41.716959 43.09006,50.239549 50.42867,54.14093 c 13.022128,6.922873 23.406298,11.569822 35.857128,16.046202 3.91868,1.40885 4.28571,1.52217 4.28571,1.32309 z m 67.665632,-4.62787 c 0.3309,-0.63723 0.14369,-1.13241 -0.57143,-1.51149 -0.44442,-0.23556 -0.69118,-0.19395 -1.11795,0.1886 -0.30122,0.27 -0.54768,0.63671 -0.54768,0.81492 0,0.97233 1.78541,1.37773 2.23706,0.50797 z M 93.864678,201.9853 c -0.3766,-0.33755 -1.52291,-1.74131 -2.54736,-3.11947 -1.46743,-1.9741 -1.89761,-2.78465 -2.02758,-3.82032 -0.0907,-0.72301 -0.22317,-1.77043 -0.29433,-2.3276 -0.11378,-0.89059 0.21257,-1.56309 2.69958,-5.56392 4.2799,-6.88501 15.068632,-25.2186 18.356322,-31.19342 1.07183,-1.94787 1.94878,-3.47849 1.94878,-3.40137 0,0.0771 -0.52191,1.47696 -1.15983,3.11082 -2.36595,6.05984 -2.94079,7.61556 -4.70515,12.73365 -3.22148,9.34498 -7.965322,22.38316 -9.708812,26.68411 -0.74417,1.83577 -1.27478,3.41526 -1.17911,3.51001 0.43295,0.42882 6.635912,-14.43342 10.062602,-24.10991 0.9921,-2.80158 1.81043,-4.97735 1.81849,-4.83508 0.0222,0.39157 -3.5483,13.50473 -4.7177,17.32642 -0.82361,2.69163 -2.944042,8.69151 -4.286352,12.12846 l -0.22103,0.56598 0.65111,-0.56598 c 1.887412,-1.64059 5.273992,-11.14499 8.873312,-24.90279 3.26041,-12.46243 7.11805,-24.74688 8.8173,-28.07831 0.49391,-0.96833 0.89802,-1.95525 0.89802,-2.19315 0,-0.87355 0.44862,-0.37291 1.24119,1.38516 0.73065,1.62068 2.32598,4.19251 4.31427,6.95502 l 0.71298,0.9906 -0.85201,5.65957 c -1.83073,12.1607 -3.01091,18.05371 -4.00036,19.97466 -0.69088,1.34131 -2.4801,3.37155 -2.97129,3.37155 -0.19022,0 -0.70936,1.05059 -1.15365,2.33464 -1.08351,3.13163 -1.42174,3.75107 -2.90635,5.3231 -1.43319,1.51756 -2.54044,1.96514 -3.07389,1.24257 -0.29792,-0.40355 -0.41514,-0.30466 -0.8982,0.75785 -1.23957,2.72654 -3.85824,5.20574 -5.15747,4.88277 -0.53102,-0.132 -0.76559,0.10563 -1.55833,1.5788 -1.149292,2.13569 -2.674542,3.37681 -4.732052,3.85053 -1.46625,0.33759 -1.59881,0.32251 -2.2431,-0.25495 z m 3.41356,-15.61201 c 2.18018,-5.10377 2.31589,-5.51822 1.80662,-5.51822 -0.33936,0 -1.97537,3.64292 -5.55772,12.37549 -0.52558,1.28122 -0.95027,2.55466 -0.94372,2.82986 0.0149,0.6287 2.31896,-4.12533 4.69482,-9.68713 z m 8.361832,5.73048 c 0.15475,-0.19456 0.81255,-1.71106 1.46176,-3.37001 1.31333,-3.35587 2.66927,-8.28083 4.89609,-17.78321 2.37956,-10.15409 5.28036,-21.14641 5.37287,-20.35992 0.0467,0.39741 -0.10756,1.60717 -0.34265,2.68836 -0.23518,1.08121 -0.82846,4.00331 -1.3184,6.4936 -0.48995,2.49027 -1.91076,9.70355 -3.15736,16.02951 -1.24662,6.32594 -2.26657,11.64255 -2.26657,11.81467 0,0.56471 0.80405,0.32758 1.38968,-0.40982 1.16991,-1.4731 2.51231,-7.09889 4.1829,-17.52984 0.81742,-5.1039 2.96581,-16.47318 3.23521,-17.12068 0.34159,-0.821 0.37623,2.43538 0.0543,5.09376 -0.47436,3.91599 -1.35101,10.19751 -2.20241,15.78133 -0.40978,2.6875 -0.66464,4.96599 -0.56636,5.06333 0.34184,0.33859 1.02102,-0.52149 1.44951,-1.83561 0.71339,-2.18784 4.17154,-20.71566 4.17154,-22.34993 0,-0.36126 -0.64207,-1.98848 -1.42684,-3.61605 -1.27665,-2.64775 -1.49468,-2.94403 -2.07143,-2.81486 -0.35452,0.0794 -1.01393,0.20377 -1.46535,0.27636 -0.45142,0.0726 -0.85309,0.16943 -0.8926,0.21518 -0.0395,0.0457 -0.59616,1.61132 -1.23702,3.47903 -1.09678,3.19638 -3.04648,10.62348 -4.71727,17.96963 -1.89287,8.32259 -3.44927,14.89174 -4.34951,18.35807 -0.54056,2.08135 -0.98282,3.89599 -0.98282,4.03256 0,0.36426 0.4583,0.30252 0.78282,-0.10541 z m -4.78284,-14.07857 c 0,-0.89012 -0.47587,-1.11339 -1.085712,-0.50938 -0.61525,0.6094 -0.41046,1.35834 0.371422,1.35834 0.60319,0 0.71429,-0.13206 0.71429,-0.84896 z m -16.717972,10.91676 c -2.23504,-1.20535 -19.53869,-11.49471 -34.282028,-20.38527 -4.08571,-2.46376 -10.70713,-6.44217 -14.71429,-8.84089 -4.00713,-2.39873 -7.510704,-4.62295 -7.785706,-4.94273 -0.470736,-0.54739 -0.5,-2.78232 -0.5,-38.18723 0,-24.881906 0.09667,-37.605838 0.285716,-37.605838 0.157141,0 0.285714,0.0972 0.285714,0.21613 0,0.11887 1.216657,1.61515 2.703676,3.325093 l 2.70368,3.10896 0.0111,32.975885 0.0111,32.97588 10.92857,6.52653 c 17.655728,10.54398 41.062108,24.56941 42.651768,25.55751 0.53409,0.33196 0.57164,0.58958 0.47119,3.23194 -0.0601,1.57916 -0.19429,2.962 -0.29834,3.07296 -0.10411,0.11097 -1.21606,-0.35205 -2.47116,-1.02893 z m 26.268912,-64.18892 c 3.53134,-3.51966 6.25366,-6.81422 10.9795,-13.28741 1.44356,-1.97732 2.74685,-3.6699 2.89619,-3.76132 0.35213,-0.21555 1.71623,0.66842 1.71623,1.11215 0,0.56007 -4.00379,7.3085 -6,10.11308 -4.00635,5.62871 -8.85406,9.29007 -12.3002,9.29007 -0.68857,0 -0.40271,-0.36588 2.70828,-3.46657 z m -10.886262,2.59802 c -1.39224,-0.26444 -2.5493,-0.82289 -3.45039,-1.66532 -1.0335,-0.96623 -0.824,-1.61375 0.80539,-2.48921 8.209232,-4.41075 12.307322,-7.40984 18.332382,-13.41609 2.62933,-2.62114 4.8842,-4.7657 5.01078,-4.7657 0.12661,0 0.65405,0.35049 1.17212,0.77887 l 0.94193,0.77885 -2.23843,3.16502 c -3.38362,4.78423 -7.83851,10.21003 -10.46202,12.74214 -4.09453,3.95189 -7.16503,5.43113 -10.111762,4.87144 z m 2.812822,-4.69353 c 0.48901,-0.43832 0.72123,-1.22958 0.36087,-1.22958 -0.31133,0 -1.41178,0.65364 -1.61971,0.96207 -0.56431,0.83707 0.39581,1.04109 1.25884,0.26751 z m -16.276072,-0.91667 c -1.72187,-0.58906 -3.33346,-1.77342 -4.27286,-3.14014 -0.837,-1.21775 -0.81067,-1.60145 0.14287,-2.08196 0.83614,-0.42136 11.65989,-3.9861 17.32657,-5.70641 4.882442,-1.48223 9.044092,-3.71143 14.335992,-7.67913 1.11085,-0.83286 2.2037,-1.51431 2.42858,-1.5143 0.22487,0 0.76733,0.445 1.20548,0.98887 0.61881,0.76814 0.73399,1.10476 0.51603,1.50811 -0.56739,1.05008 -7.23561,7.14061 -10.37445,9.47566 -5.31889,3.95688 -11.071492,7.22338 -14.493592,8.22993 -2.03819,0.5995 -4.92648,0.56534 -6.81462,-0.0806 z m 1.37001,-3.14278 c 0,-0.15564 -0.12858,-0.28298 -0.28573,-0.28298 -0.15713,0 -0.2857,0.12734 -0.2857,0.28298 0,0.15564 0.12857,0.28299 0.2857,0.28299 0.15715,0 0.28573,-0.12735 0.28573,-0.28299 z m 5.35713,-2.97997 c 0.98216,-0.42506 1.78572,-0.90127 1.78572,-1.05824 0,-0.71684 -5.12459,0.59624 -6.44566,1.65157 -0.51443,0.41097 -0.43095,0.43336 1.15995,0.31115 0.97587,-0.075 2.48346,-0.46456 3.49999,-0.90448 z m -18.14266,-2.26804 c -2.2308,-0.59498 -3.65886,-1.41014 -5.40505,-3.08532 -1.29295,-1.24035 -1.55173,-1.64682 -1.47451,-2.31599 l 0.0937,-0.81161 4.28572,-0.20987 c 4.57933,-0.22424 13.09908,-1.21501 13.80295,-1.60513 0.23846,-0.13219 -3.32692,-0.3014 -8.11742,-0.38525 -10.73307,-0.18785 -14.67945,-0.75727 -18.54268,-2.67553 -3.546968,-1.76119 -7.480268,-6.069346 -6.902578,-7.560396 0.21623,-0.55807 1.25181,-0.55885 6.045438,-0.004 4.7996,0.55498 13.85612,0.84208 17.14286,0.54345 l 2.57143,-0.23363 -1.85716,-0.22526 c -1.02141,-0.1239 -5.77856,-0.6785 -10.57142,-1.23242 -11.048518,-1.27694 -11.793408,-1.39662 -14.955888,-2.403 -4.46431,-1.420619 -8.12111,-3.809979 -11.98611,-7.831679 -1.71598,-1.78556 -3.5581,-4.378333 -3.80611,-5.357073 -0.28561,-1.12706 0.10166,-2.08964 0.84079,-2.08964 0.73336,0 13.55704,4.15396 20.76495,6.726383 13.731568,4.90062 23.183468,6.92482 37.999508,8.137899 2.75,0.22516 6.956192,0.41108 9.347092,0.41318 4.00326,0.003 4.37048,0.0471 4.64286,0.55117 0.41907,0.77559 0.36699,2.72062 -0.0828,3.09032 -1.74423,1.43378 -28.992072,6.305806 -40.045512,7.160316 -1.66655,0.12884 4.11093,0.45581 8.59243,0.48629 10.12925,0.0689 21.37386,-1.50552 31.194362,-4.367666 1.8379,-0.53567 3.48897,-0.97392 3.66907,-0.97392 0.47379,0 1.06109,1.57571 0.86936,2.3324 -0.27276,1.076356 -8.96406,5.960216 -15.952672,8.964216 -4.14141,1.78016 -11.85027,4.3907 -14.66767,4.96711 -2.58868,0.5296 -5.49823,0.52772 -7.49492,-0.004 z m 4.0416,-3.69158 c 0.23404,-0.60407 -0.0283,-0.96493 -0.70152,-0.96493 -0.34728,0 -0.55456,0.19392 -0.55456,0.51882 0,0.94237 0.93514,1.27449 1.25608,0.44611 z m -4.75274,-1.44234 c -0.27318,-0.0707 -0.78746,-0.0734 -1.14287,-0.005 -0.35539,0.0677 -0.1319,0.12564 0.49667,0.12878 0.62857,0.003 0.91937,-0.0522 0.6462,-0.12306 z M 63.571518,96.949644 c 0,-0.61425 -0.41065,-0.79892 -0.98163,-0.44145 -0.3438,0.21524 -0.34842,0.33055 -0.0286,0.71229 0.47351,0.56511 1.01017,0.42121 1.01017,-0.27084 z m -4.28571,-0.70747 c -0.78643,-0.33471 -1.066,-0.33471 -0.85714,0 0.0971,0.15565 0.45827,0.27404 0.80257,0.26309 0.60353,-0.0191 0.60549,-0.0285 0.0544,-0.26309 z m -2.14285,-6.336909 c 0,-0.21682 -0.19286,-0.4675 -0.428578,-0.5571 -0.29151,-0.11078 -0.42857,0.0153 -0.42857,0.39421 0,0.306539 0.19275,0.557089 0.42857,0.557089 0.235718,0 0.428578,-0.1774 0.428578,-0.394199 z m 0,-5.2399 c -0.23573,-0.13208 -0.750018,-0.31797 -1.142868,-0.41308 -0.59538,-0.14413 -0.5716,-0.10486 0.14287,0.236 0.915618,0.43682 1.716648,0.57866 0.999998,0.17708 z m -4.454228,-0.76895 c 0.22346,-0.57675 -0.3065,-1.23758 -0.99247,-1.23758 -0.77706,0 -0.95922,0.53136 -0.39416,1.14977 0.61126,0.66898 1.1483,0.70298 1.38663,0.0879 z m -2.97435,-2.09354 c 0,-0.33629 -1.21236,-0.841963 -2.0186,-0.841963 -0.61119,0 -0.76014,0.718943 -0.19568,0.944533 0.65778,0.26288 2.21428,0.19079 2.21428,-0.10256 z m -4.44286,-1.371163 c -0.32042,-0.29066 -4.75712,-1.77244 -4.89578,-1.63512 -0.0523,0.0519 0.90249,0.48877 2.12176,0.97101 2.2215,0.87862 3.29339,1.13524 2.77402,0.66411 z m 54.585708,7.567993 c -9.12044,-1.12756 -18.63682,-3.16362 -49.428558,-10.575383 -9.7235,-2.3405 -14.64758,-4.06744 -18.33602,-6.43071 -3.974509,-2.54654 -8.888083,-7.836487 -10.819663,-11.648422 -1.10086,-2.172522 -1.193514,-2.75929 -0.5382,-3.40835 0.717557,-0.710708 1.646527,-0.530092 4.325053,0.840895 6.6631,3.410478 17.50066,8.208607 25.18367,11.149617 14.746918,5.64503 40.625298,13.347083 53.328,15.871743 0.94288,0.18739 1.80877,0.48503 1.9242,0.66143 0.34089,0.52081 0.2481,3.14973 -0.12419,3.51845 -0.38711,0.38342 -2.51591,0.39142 -5.514292,0.0207 z M 48.42867,73.886252 c -0.0971,-0.15565 -0.29757,-0.28298 -0.44544,-0.28298 -0.14787,0 -0.26885,0.12733 -0.26885,0.28298 0,0.15564 0.20044,0.28299 0.44543,0.28299 0.24499,0 0.36597,-0.12735 0.26886,-0.28299 z m -4.79074,-6.41877 c 0.14549,-0.43788 -0.85327,-0.96125 -1.30576,-0.68426 -0.54367,0.33279 -0.0626,1.20329 0.61047,1.10454 0.32127,-0.0472 0.63415,-0.23626 0.69529,-0.42028 z m -4.20926,-2.60611 c 0,-0.61587 -1.34007,-1.080494 -1.80066,-0.62431 -0.42235,0.41833 0.29448,1.1596 1.12135,1.1596 0.47585,0 0.67931,-0.16031 0.67931,-0.53529 z M 36.2858,63.729025 c 0,-0.138988 -0.19286,-0.32601 -0.42857,-0.415596 -0.4355,-0.165524 -0.58514,0.135919 -0.2381,0.479652 0.27306,0.270451 0.66667,0.232631 0.66667,-0.06407 z m -3.14286,-1.445202 c 0,-0.155642 -0.225,-0.281036 -0.5,-0.278663 -0.42729,0.0043 -0.43768,0.04417 -0.0714,0.278663 0.5392,0.345124 0.57142,0.345124 0.57142,0 z"
       id="path302"
       sodipodi:nodetypes="cssscsscsssssscccsssssssscsssssssccssscsscsssssscscssssssssssscssssssssssscscsssssssssscccsssssscccsssssscscsssssssscssssssscsssssssssssssssscsssssssscsscsssssscsssssssssssssssscsssssssssscssssssssssssccsssssssssssscccsscsssssssssssssssscssssssssssssssssssssssssssscscsscssssscscsssssssscscsssssssccsssscccccsssscscccsssssssssssssssssssscsssssssssscsssssssssssssssssssssccs" /><text
       xml:space="preserve"
       transform="scale(0.26458333)"
       id="text524"
       style="font-size:14.4px;font-family:'Arial Rounded MT Bold';-inkscape-font-specification:'Arial Rounded MT Bold, ';text-align:center;white-space:pre;shape-inside:url(#rect526);fill:#090910;stroke:#000023;stroke-width:3.77953" /><text
       xml:space="preserve"
       transform="scale(0.26458333)"
       id="text530"
       style="font-style:normal;font-variant:normal;font-weight:normal;font-stretch:normal;font-size:22.4px;font-family:Alegreya;-inkscape-font-specification:Alegreya;text-align:center;white-space:pre;shape-inside:url(#rect532);fill:#090910;stroke:#000023;stroke-width:3.77953" /><text
       xml:space="preserve"
       style="font-style:normal;font-variant:normal;font-weight:normal;font-stretch:normal;font-size:14.9488px;font-family:Alegreya;-inkscape-font-specification:Alegreya;text-align:center;text-anchor:middle;opacity:0.945161;fill:#190013;fill-opacity:1;stroke:#001919;stroke-width:0.434142;stroke-miterlimit:0;stroke-dasharray:none;stroke-dashoffset:0;stroke-opacity:1"
       x="161.27351"
       y="157.77222"
       id="text8413"
       transform="scale(1.0650517,0.93892155)"><tspan
         sodipodi:role="line"
         id="tspan8411"
         style="fill:#190013;fill-opacity:1;stroke-width:0.434142;stroke-miterlimit:0;stroke-dasharray:none;stroke-dashoffset:0"
         x="161.27351"
         y="157.77222">avesperu</tspan></text><path
       style="opacity:0.211111;fill:#000000;fill-opacity:1;stroke-width:0.21943;filter:url(#filter9885)"
       d="m 130.96214,155.65966 c -0.38038,-0.1365 -1.07561,-0.59913 -1.54494,-1.02806 -3.20691,-2.93077 -5.24263,-3.68442 -7.56684,-2.80131 -1.57659,0.59904 -4.48182,0.80417 -4.87975,0.34454 -0.11965,-0.1382 0.42276,-0.37179 1.30139,-0.56045 4.55779,-0.97859 5.85803,-4.93812 2.15724,-6.56931 -0.99542,-0.43874 -1.5451,-1.05468 -1.54631,-1.73269 -0.003,-1.75805 -0.84494,-4.5247 -2.34742,-7.71478 -0.40925,-0.86891 -0.69581,-1.72196 -0.63681,-1.89567 0.0601,-0.17709 0.0311,-0.23016 -0.0662,-0.1208 -0.0962,0.10818 -0.44973,-0.4973 -0.79411,-1.36021 -1.55931,-3.90717 -3.57203,-6.14307 -5.52986,-6.14307 -1.94862,0 -3.81837,-1.50002 -5.35512,-4.29616 -0.57428,-1.04494 -1.26485,-2.10752 -1.53459,-2.36133 -0.66256,-0.62342 -0.70494,-0.47965 1.17697,-3.99306 l 1.66739,-3.11295 -1.7894,3.13207 -1.7894,3.13205 -1.30139,-0.71113 c -3.623462,-1.98001 -5.129212,-0.4833 -5.279221,5.24751 l -0.08902,3.40075 -0.303945,0.10561 c -0.186925,0.0649 -0.26196,-0.018 -0.194892,-0.21549 0.06569,-0.19339 0.01695,-0.25675 -0.122571,-0.15933 -0.266054,0.18577 -1.045722,-2.17965 -1.421401,-4.31235 -0.252792,-1.43509 -0.289434,-4.41329 -0.07913,-6.43151 0.16099,-1.54497 -0.05829,-2.23754 -1.256181,-3.9676 -0.468272,-0.67629 -0.831287,-1.35357 -0.806702,-1.50504 0.02458,-0.15147 -0.02406,-0.19807 -0.108098,-0.10359 -0.621972,0.69942 -2.369371,-5.01503 -1.993057,-6.51782 0.52562,-2.09901 0.156489,-4.157732 -1.021481,-5.69696 -1.023887,-1.337896 -1.024316,-1.336744 -1.005686,2.6893 0.02219,4.79545 0.04309,4.70588 -2.033907,8.71755 -2.535132,4.89655 -3.235493,7.37623 -2.884999,10.21457 0.191741,1.55273 0.226458,4.46559 0.0591,4.95831 -0.117964,0.34729 -2.087138,2.0826 -2.363273,2.0826 -0.369161,0 -2.41765,2.48313 -2.827378,3.42729 -0.983163,2.26553 -0.360205,7.36838 0.688685,5.64123 0.902471,-1.48606 1.276413,-0.26349 0.57106,1.86703 -1.245486,3.76199 -0.786229,6.28608 1.157085,6.35936 l 0.811816,0.0307 0.04922,1.17888 c 0.02707,0.64837 0.195435,1.69027 0.374145,2.31533 l 0.324925,1.13647 -1.997736,-0.2485 c -1.098757,-0.13668 -2.839575,-0.23808 -3.868487,-0.22534 l -1.870749,0.0232 -1.057379,0.90164 c -0.581559,0.49589 -1.487105,1.51773 -2.012327,2.27074 -1.175903,1.6859 -1.064102,1.7016 -1.879622,-0.26377 -1.389907,-3.34959 -1.708429,-3.67927 -5.461796,-5.65316 -6.757742,-3.55389 -12.159569,-3.63248 -17.89412,-0.26033 l -0.325348,0.19132 0.325348,-0.38474 c 3.881848,-4.59047 10.427681,-5.24782 17.324762,-1.73982 4.523822,2.30092 6.157348,2.28074 8.129981,-0.10045 0.490047,-0.59155 1.075672,-1.07605 1.301391,-1.07665 1.349095,-0.003 1.769555,-1.605 1.472595,-5.60851 -0.493571,-6.65408 -0.396602,-8.08454 0.676031,-9.97282 0.795469,-1.40036 1.176031,-2.70543 1.422396,-4.87784 0.343998,-3.03334 1.50948,-5.38125 2.978645,-6.0006 0.2702,-0.1139 0.711771,-0.79783 1.121453,-1.73696 0.37167,-0.85198 0.735799,-1.51735 0.809179,-1.47861 0.07338,0.0387 0.09857,-0.0948 0.05598,-0.29672 -0.09816,-0.46545 0.918515,-3.60883 1.7666,-5.46199 3.518334,-7.68793 2.828692,-16.093908 -1.026761,-12.515069 -0.946381,0.87848 -1.433231,0.757303 -2.429454,-0.604701 -1.425116,-1.94837 -1.965641,-1.186022 -1.259538,1.776415 0.685245,2.87492 0.549098,3.544405 -0.296516,1.458089 -0.268413,-0.662236 -1.037046,-1.955161 -1.708075,-2.873165 -1.799699,-2.462098 -2.069927,-2.955086 -2.519374,-4.596149 -0.597665,-2.182268 -0.553088,-3.749475 0.07713,-2.711725 0.59019,0.971835 1.216255,0.882541 1.845997,-0.263286 0.324749,-0.590897 0.750782,-1.068077 0.956839,-1.071736 0.695742,-0.01231 1.075979,-0.888705 1.249549,-2.879977 0.196494,-2.254266 0.499542,-3.224044 1.344712,-4.303218 l 0.64691,-0.826014 -0.1117,-0.94992 c -0.646721,-5.499812 -2.307779,-7.627308 -3.834687,-4.911489 -0.26821,0.477047 -0.567914,0.777115 -0.666009,0.6668 -0.111316,-0.125182 -0.131656,-0.06309 -0.05411,0.16521 0.07421,0.21847 -0.03584,0.683882 -0.273257,1.155693 -0.218624,0.434447 -1.047349,2.321658 -1.841613,4.193788 -2.044516,4.819051 -2.86617,6.516497 -3.052762,6.306662 -0.08919,-0.100347 -0.116923,-0.04911 -0.06161,0.113671 0.359382,1.058043 -2.897172,5.546104 -4.191992,5.77725 -0.371595,0.06634 -0.608374,0.425273 -1.037019,1.572062 -0.417046,1.115756 -0.790979,1.694257 -1.500475,2.321344 -0.519749,0.459393 -1.25417,1.354587 -1.632044,1.989336 -0.648293,1.088986 -1.123837,1.19279 -1.123837,0.245331 0,-0.493626 2.030667,-3.83067 2.24148,-3.683471 0.118539,0.08278 0.175834,0.03367 0.127324,-0.109185 -0.04851,-0.142824 0.148996,-0.591512 0.438903,-0.997107 0.905613,-1.266982 1.372873,-2.158685 1.836081,-3.503909 0.53372,-1.550024 0.666672,-1.733837 1.258362,-1.739766 1.239772,-0.01242 1.798028,-0.961913 4.716178,-8.021459 1.183361,-2.862761 2.358064,-5.659865 2.610451,-6.215768 0.252387,-0.555904 1.182759,-2.701388 2.067493,-4.767758 1.378453,-3.219469 1.994642,-4.382669 2.321653,-4.382669 0.199482,0 2.628448,3.660235 2.590265,3.903306 -0.02458,0.156495 0.01656,0.215641 0.09144,0.131436 0.07488,-0.08424 0.570814,0.592899 1.10208,1.504672 0.531265,0.911761 1.810504,3.020284 2.842752,4.685601 2.026203,3.268859 2.67324,4.588006 3.664792,7.471608 2.26583,6.589424 2.080727,6.390206 4.030423,4.337719 2.442247,-2.571015 2.914004,-3.39789 4.844076,-8.490473 0.741724,-1.957074 1.391547,-3.391905 1.487368,-3.284152 0.09711,0.109185 0.121939,0.04933 0.05783,-0.139356 -0.06178,-0.181889 0.09162,-0.88969 0.340881,-1.57289 0.249269,-0.683189 0.57252,-1.587221 0.718336,-2.008936 0.145815,-0.421716 0.352565,-0.730152 0.459443,-0.685416 0.106879,0.04475 0.146462,-0.05963 0.08796,-0.231805 -0.138583,-0.40799 1.716184,-3.656432 2.368364,-4.147966 l 0.50365,-0.379586 0.41519,0.755457 0.41519,0.755446 -0.40918,0.991581 c -0.77957,1.889135 -1.91988,6.937832 -2.30618,10.210539 -0.14928,1.264655 -0.498443,1.769826 -2.135263,3.089353 -1.688706,1.361355 -1.749333,1.447752 -2.29419,3.269251 -0.439388,1.468895 -0.509502,1.535234 -1.533851,1.451142 -1.493992,-0.122632 -3.461941,5.054525 -2.886302,7.593109 0.103919,0.458286 0.175309,0.943029 0.158643,1.077228 -0.01666,0.134199 0.04605,0.158151 0.139348,0.05325 0.229568,-0.258151 1.83306,2.772817 2.387941,4.513758 2.322161,7.285784 3.746786,9.567684 7.292244,11.680304 0.53682,0.31989 1.58134,1.10986 2.32115,1.75551 l 1.34511,1.17391 1.45314,3.03262 c 2.64017,5.50992 4.09142,7.23195 8.51629,10.10535 0.95667,0.62125 2.12464,2.64233 2.83757,4.91022 0.28601,0.90982 0.74147,2.17517 1.01214,2.8119 0.27067,0.63672 0.65636,1.55512 0.8571,2.0409 0.48123,1.16452 2.73139,5.73227 3.26779,6.63352 0.23209,0.38996 0.3759,0.85614 0.31958,1.03597 -0.0563,0.17982 -0.04,0.22363 0.0363,0.0973 0.17947,-0.29707 1.88216,2.75307 1.75154,3.13762 -0.0544,0.16024 -0.0168,0.19904 0.0834,0.0863 0.10267,-0.11546 0.6,0.49341 1.13772,1.39288 3.67005,6.13903 4.83015,7.08235 8.81592,7.16849 1.38679,0.03 2.85085,0.20882 3.25348,0.39741 0.40261,0.1886 1.00654,0.42426 1.34205,0.52369 0.33551,0.0994 0.61003,0.3043 0.61003,0.45527 0,0.15097 -0.0656,0.20074 -0.14575,0.11064 -0.40766,-0.45843 -4.573,-0.48696 -6.18652,-0.0424 -1.85387,0.51081 -2.04242,0.5203 -3.06237,0.15426 z m 24.46773,-3.40151 c -0.34371,-0.23747 -1.21092,-0.55105 -1.92712,-0.69685 -1.07539,-0.2189 -1.42978,-0.4318 -2.03482,-1.2224 -0.46467,-0.60718 -0.99624,-1.01139 -1.45334,-1.10514 l -0.7207,-0.1478 0.67277,-1.24218 0.67276,-1.24216 1.24364,1.12619 c 0.68399,0.61942 1.31713,1.12958 1.40698,1.13369 0.0898,0.004 0.99483,0.58854 2.01108,1.2987 l 1.84771,1.29121 1.16107,-0.40643 c 1.26504,-0.44283 2.18186,-0.32616 3.43849,0.43757 l 0.81337,0.49433 -1.30139,0.18896 c -3.43745,0.49908 -5.20131,0.52701 -5.8305,0.0923 z m -60.546532,-3.05766 0.807255,-1.51546 1.632853,0.009 c 2.548391,0.0143 5.130344,0.76534 5.130344,1.49239 0,0.15194 -0.7348,0.23966 -1.66741,0.19904 -1.113067,-0.0484 -2.073023,0.0943 -2.887461,0.42943 -0.671029,0.27611 -1.80568,0.59179 -2.521445,0.70147 l -1.301389,0.19945 0.807253,-1.51546 z m -4.670757,0.64046 c -0.536086,-0.14777 -0.552513,-0.35289 -0.110199,-1.37603 l 0.337155,-0.77989 h 0.834577 0.834577 l -0.635388,1.18397 c -0.349462,0.65117 -0.675433,1.16399 -0.724378,1.1396 -0.04895,-0.0244 -0.290299,-0.0998 -0.536344,-0.16765 z m 58.033889,-0.57383 c -0.17894,-0.0688 -0.49306,-0.1905 -0.69802,-0.27033 -0.20497,-0.0799 -0.32928,-0.27292 -0.27623,-0.42907 0.053,-0.15616 -0.0135,-0.20716 -0.14787,-0.11335 -0.17048,0.11903 -0.3224,-0.16943 -0.50268,-0.95451 -0.32823,-1.4294 -0.70255,-2.18273 -1.08454,-2.18273 -0.16507,0 -0.30013,-0.12629 -0.30013,-0.28062 0,-0.36236 -1.34619,-3.29557 -2.38433,-5.19518 -0.44484,-0.81397 -1.18879,-2.50729 -1.65325,-3.76295 -1.07881,-2.91657 -2.39217,-5.2456 -3.64103,-6.45673 l -0.98466,-0.95492 -0.90572,0.17008 c -1.77829,0.33396 -2.65348,2.13085 -3.14001,6.44688 -0.6335,5.61974 -1.51752,5.84922 -2.1641,0.56179 -0.664,-5.4299 -1.08865,-7.10708 -2.66275,-10.51679 -1.73982,-3.76873 -1.60213,-4.8896 0.81159,-6.60662 0.39136,-0.2784 0.61896,-1.52389 0.27848,-1.52389 -0.14166,0 -0.71004,-2.6571 -1.01304,-4.73582 -0.53903,-3.69792 -0.71599,-3.87484 3.25637,3.25585 l 3.70999,6.65972 -3.76852,-6.95572 -3.76852,-6.95571 -0.26571,-2.36792 c -0.8612,-7.674829 -1.36557,-9.978856 -2.77217,-12.663721 -0.46005,-0.878133 -1.07232,-2.258932 -1.36061,-3.068433 -0.86589,-2.431435 -2.00939,-3.151038 -2.41019,-1.51672 l -0.16463,0.67132 -0.11472,-1.392019 c -0.16495,-2.001363 0.009,-3.573839 0.62713,-5.657247 0.57043,-1.923792 0.6618,-2.573017 0.90248,-6.412636 0.21923,-3.497432 0.90119,-5.97847 1.72238,-6.266221 0.68652,-0.240565 0.39621,-1.043679 -0.97937,-2.709343 -0.76163,-0.922221 -1.86036,-2.410851 -2.44161,-3.308058 -1.08548,-1.675474 -1.39199,-1.942508 -1.39199,-1.212702 0,0.230217 -0.25492,0.896189 -0.56648,1.479948 l -0.56649,1.061365 h -1.312 -1.31202 l -0.77582,1.411641 c -0.94677,1.722661 -1.87607,4.544142 -2.33561,7.091194 -0.2596,1.438859 -0.3786,1.788609 -0.48777,1.433646 -0.0794,-0.258241 -0.0995,-0.601659 -0.0446,-0.763165 0.0548,-0.161507 0.0117,-0.293647 -0.096,-0.293647 -0.26575,0 -0.0956,-3.92888 0.23069,-5.327801 0.33467,-1.434698 0.91309,-2.70875 1.12274,-2.472995 0.10717,0.120528 0.12719,0.05638 0.0518,-0.165702 -0.0692,-0.203759 -0.007,-0.579911 0.14266,-0.859708 0.87706,-1.641936 3.14894,-7.107136 3.89806,-9.377109 0.64055,-1.940987 0.76637,-3.843949 0.40899,-6.18593 -0.24523,-1.607041 0.0524,-3.350598 0.84668,-4.959059 1.61419,-3.269053 2.11219,-7.956221 0.88943,-8.371254 -0.44733,-0.151834 -1.0544,-0.08107 -1.01787,0.118638 0.016,0.08735 -0.30711,0.957873 -0.71796,1.934501 -0.41085,0.976627 -0.95051,2.339579 -1.19924,3.028783 -0.24872,0.689205 -0.52781,1.168106 -0.62018,1.064226 -0.0924,-0.103882 -0.12212,-0.05391 -0.0661,0.111042 0.056,0.164956 -0.51776,2.283356 -1.27509,4.70756 -0.75734,2.424203 -1.37749,4.560335 -1.37813,4.746967 -0.002,0.549438 -0.95197,1.91189 -2.71854,3.898452 -2.63808,2.966587 -3.26273,4.387468 -2.97082,6.757542 0.0913,0.741004 0.11987,1.83348 0.0636,2.42771 -0.12513,1.320377 -0.56078,4.226923 -0.69432,4.632295 -0.0536,0.162793 -0.11238,0.474686 -0.13055,0.693101 -0.0994,1.195172 -0.18735,0.363185 -0.20435,-1.933614 -0.0354,-4.779997 -0.72726,-6.09053 -2.26357,-4.287434 l -0.37705,0.442534 -0.416,-0.756933 -0.41601,-0.756934 0.38637,-0.360859 c 0.49053,-0.458151 0.86571,-1.275685 1.35633,-2.955489 0.65443,-2.240641 1.76115,-4.049285 3.28261,-5.364517 l 1.3797,-1.192689 0.5813,-1.679211 c 0.70954,-2.049645 1.1902,-3.043733 1.37255,-2.838672 0.0754,0.08483 0.0996,-0.02392 0.0537,-0.241639 -0.0486,-0.230605 0.53442,-1.503657 1.39656,-3.049261 1.85895,-3.332641 3.37744,-6.741133 4.05817,-9.109193 0.86396,-3.00552 1.47789,-5.02531 1.86132,-6.123713 0.1989,-0.569778 0.55693,-1.598805 0.79562,-2.286725 1.13088,-3.259273 2.01689,-2.693762 2.5243,1.611166 0.21544,1.827814 1.1917,7.038617 1.5644,8.349978 0.15048,0.52948 0.23434,1.148864 0.18635,1.376409 -0.048,0.227544 -0.002,0.382017 0.1023,0.34327 0.10425,-0.03874 0.26898,0.329139 0.36605,0.817521 0.40828,2.054158 1.4573,5.346688 2.10976,6.621841 0.38551,0.753422 1.19479,2.768408 1.7984,4.477748 0.60363,1.709338 1.23975,3.393147 1.41362,3.741811 0.17387,0.348654 0.3361,0.881434 0.3605,1.183952 0.0244,0.302519 0.13479,0.550031 0.24531,0.550031 0.36982,0 0.66274,1.135591 0.66274,2.569303 0,1.554577 0.46924,4.122997 0.91815,5.025551 l 0.28484,0.572685 -5.60371,10.271698 -5.60371,10.271687 5.62688,-10.162647 5.62687,-10.162648 0.39573,0.839001 c 0.42533,0.901727 1.84168,3.058913 2.00841,3.058913 0.24964,0 1.04101,1.30843 0.95122,1.572745 -0.0562,0.165724 -0.0179,0.202272 0.0877,0.08357 0.2643,-0.297215 3.41135,4.081214 3.31935,4.618133 -0.0224,0.130541 0.0208,0.20405 0.0959,0.163352 0.73075,-0.396019 3.72705,5.868121 4.89062,10.224478 0.89133,3.337089 1.14137,3.760997 2.21837,3.760997 h 0.83992 l 1.12217,1.355617 1.12216,1.355616 1.87075,-0.12054 c 2.88924,-0.186151 4.20992,-1.452171 5.11832,-4.906488 0.79768,-3.033228 0.84561,-3.137725 1.72078,-3.75198 0.80695,-0.566352 2.10236,-3.09234 2.11055,-4.115468 0.0101,-1.249709 1.47722,-2.902317 2.90065,-3.26717 1.09073,-0.279585 2.94691,-1.554543 3.84863,-2.643529 2.30699,-2.786118 1.9551,-3.210574 4.01777,4.846358 l 0.79566,3.10789 -2.32583,-4.143715 -2.32583,-4.143703 2.46592,4.587692 c 1.35625,2.523224 2.73935,5.377136 3.07355,6.342013 0.74156,2.14101 1.70106,3.848871 2.67555,4.762378 0.40262,0.377426 1.09587,1.36423 1.54054,2.192895 l 0.80852,1.506663 -1.36633,2.499026 -1.36631,2.499027 -0.47742,-0.503425 c -0.58743,-0.619412 -1.3645,-2.342566 -2.0326,-4.507236 -0.89653,-2.904824 -2.63731,-4.889294 -2.63731,-3.006502 0,0.305785 -0.14323,0.856475 -0.3183,1.223755 l -0.3183,0.667763 -0.61492,-0.548476 c -0.88467,-0.789085 -1.35125,-2.205972 -1.35125,-4.103374 V 85.3129 l -0.87256,-0.186587 c -2.16439,-0.462851 -4.77525,0.865089 -6.7139,3.414882 -0.45953,0.604377 -0.88045,1.039282 -0.93538,0.966455 -0.0549,-0.07283 -0.0622,-0.04173 -0.0163,0.06902 0.046,0.110863 -0.0939,0.543687 -0.31077,0.961968 -0.21692,0.418271 -0.55183,1.359868 -0.74425,2.092436 -0.19243,0.73258 -0.43967,1.664937 -0.54943,2.07193 -0.26294,0.974968 -0.81345,1.002992 -1.55312,0.07909 l -0.5862,-0.732232 -1.3014,0.235788 c -0.71577,0.12969 -2.30661,0.252054 -3.53522,0.27191 -3.23902,0.05236 -3.03235,0.632546 1.11819,3.13899 1.29038,0.779252 2.80132,1.86647 3.35763,2.41604 0.55632,0.54958 1.2311,1.21399 1.49951,1.47648 0.26841,0.2625 0.89367,0.6889 1.38945,0.94758 0.5665,0.29556 1.34331,1.07513 2.09065,2.0981 0.65406,0.89529 1.39758,1.82385 1.65227,2.06349 0.63591,0.59834 1.19743,2.05107 1.54152,3.98819 0.56184,3.16302 2.70949,5.99685 7.06272,9.31925 1.15831,0.88403 1.98464,1.83631 3.77397,4.34921 2.0696,2.90649 5.57784,5.66424 8.70286,6.84109 1.50544,0.56693 2.2223,1.2178 2.95283,2.68099 1.20951,2.42259 2.17805,3.94443 3.00803,4.72653 0.46666,0.43973 1.22304,1.18436 1.68085,1.65472 1.44561,1.48526 4.62674,2.97657 8.75353,4.10363 2.81748,0.76948 2.81267,1.38767 -0.009,1.13253 -5.64358,-0.51034 -7.58402,-1.18462 -10.45686,-3.63362 -2.47212,-2.1074 -4.48258,-2.35258 -6.34861,-0.77421 l -0.88409,0.74778 -1.88137,-0.14224 c -2.01447,-0.15232 -2.5361,-0.33921 -5.26894,-1.88774 -2.23519,-1.26654 -3.84791,-2.42223 -4.23607,-3.03559 l -0.3033,-0.47929 1.19801,-0.14799 1.19802,-0.148 0.054,-0.69493 c 0.0754,-0.9691 -0.32818,-1.67422 -3.14487,-5.49462 -3.37935,-4.58358 -4.13319,-5.0946 -7.12943,-4.83305 l -1.81764,0.15867 -0.93197,-1.04405 c -0.51259,-0.57423 -0.8856,-1.18061 -0.8289,-1.34752 0.0567,-0.1669 0.027,-0.21788 -0.066,-0.11328 -0.093,0.1046 -0.711,-0.26536 -1.37329,-0.82213 -0.66229,-0.55677 -1.56744,-1.17343 -2.01144,-1.37036 -1.52924,-0.67827 -2.2033,-1.85648 -2.44289,-4.26998 -0.14244,-1.43487 -0.57748,-2.62185 -1.21014,-3.30186 -0.25926,-0.27865 -0.43494,-0.61385 -0.39043,-0.74491 0.0445,-0.13107 -0.0336,-0.15832 -0.17359,-0.0606 -0.13999,0.0978 -0.3451,0.0425 -0.45579,-0.12271 -0.4207,-0.62797 -6.09813,-5.63278 -6.95224,-6.1286 -1.02619,-0.59569 -1.91062,-1.69467 -2.1085,-2.61995 -0.21707,-1.01511 -1.07827,-2.32701 -2.00087,-3.04804 -0.4687,-0.366312 -0.83476,-0.801329 -0.81347,-0.966717 0.0213,-0.165389 -0.0581,-0.233103 -0.17643,-0.150476 -1.03847,0.725073 -2.99776,-6.000766 -3.15402,-10.827132 -0.10046,-3.102632 -0.14981,-3.244808 -1.12864,-3.251341 -0.78688,-0.0056 -1.44489,-0.857303 -1.86661,-2.417026 -1.22059,-4.514373 -1.52789,-5.529514 -1.88321,-6.221238 -0.49314,-0.959989 -1.12333,-1.297332 -1.46362,-0.78347 -0.25955,0.391959 -0.25606,0.626673 0.0961,6.457307 0.11193,1.853045 0.0844,2.454088 -0.16632,3.636821 -0.55656,2.625093 -0.39757,4.011384 0.75547,6.587142 0.4083,0.912086 1.11476,3.008628 1.56993,4.658965 0.7137,2.587762 1.79544,5.646015 1.95845,5.536885 0.74582,-0.49933 1.38263,2.27096 1.85021,8.04894 0.61548,7.60555 0.78561,8.52988 1.56984,8.52988 0.56686,0 1.22345,0.85243 2.174,2.82242 1.02836,2.13124 1.58482,2.80136 2.3262,2.80136 0.64044,0 1.02024,0.28536 0.89002,0.66873 -0.063,0.1854 -0.027,0.22237 0.0892,0.0917 0.4425,-0.49761 3.2665,5.01062 3.00137,5.85418 -0.059,0.18763 -0.046,0.24002 0.0288,0.11644 0.0748,-0.12359 0.30037,0.0563 0.50124,0.39958 0.24228,0.41415 0.57489,0.62222 0.98811,0.61816 0.71319,-0.007 2.07723,1.27258 1.90309,1.78527 -0.0607,0.17878 -0.0407,0.24666 0.0445,0.15085 0.29965,-0.33697 1.20895,1.64192 1.90828,4.15296 0.41141,1.47724 0.6069,2.82511 0.26847,1.85106 -0.40684,-1.17094 -1.56423,-0.39718 -2.67588,1.78893 l -0.62187,1.22295 0.26402,0.48038 0.26402,0.48039 0.7943,-1.42354 c 0.84433,-1.51317 1.36251,-1.71629 1.45266,-0.56944 0.0324,0.41246 -0.12806,0.95375 -0.44736,1.50896 -0.54338,0.94485 -0.59574,1.24528 -0.3082,1.76846 0.14451,0.26292 0.33846,0.10068 0.81384,-0.68077 0.77744,-1.27799 0.89035,-1.28465 1.40718,-0.0829 0.17538,0.4078 0.17649,0.62433 0.006,1.18397 -0.11468,0.37668 -0.19297,0.78479 -0.17396,0.90688 0.019,0.1221 -0.0249,0.18869 -0.0974,0.14799 -0.0726,-0.0407 -0.36139,0.2566 -0.64175,0.66066 l -0.50973,0.73466 0.26028,0.5233 c 0.27631,0.55554 0.19642,0.60594 -0.52219,0.32944 z m 13.82727,-29.70103 c 1.16054,-2.11633 2.07346,-3.84786 2.02873,-3.84786 -0.0447,0 -1.03087,1.73153 -2.1914,3.84786 -1.16054,2.11632 -2.07347,3.84785 -2.02873,3.84785 0.0447,0 1.03087,-1.73153 2.1914,-3.84785 z m -80.543395,28.48893 c -0.17517,-0.99727 -0.436773,-1.8287 -0.539162,-1.71356 -0.05681,0.0639 -0.103298,-0.34025 -0.103298,-0.89807 0,-1.22006 -0.03909,-1.20895 0.540902,-0.15365 0.449926,0.81866 2.267602,2.09931 2.979616,2.09931 0.166371,0 0.380845,0.26638 0.476611,0.59198 l 0.174121,0.59197 h -1.718904 -1.718904 z m 119.923995,-1.06709 c -0.58581,-0.38637 -0.97691,-0.82283 -0.99929,-1.11514 l -0.0368,-0.48029 0.46051,0.31626 c 0.25327,0.17395 0.41713,0.44396 0.36412,0.60003 -0.054,0.15883 -0.0106,0.18724 0.0986,0.0646 0.10721,-0.12057 0.38672,0.009 0.62108,0.2888 0.23438,0.27943 0.61548,0.61244 0.8469,0.74005 l 0.42074,0.232 -0.40668,-0.006 c -0.22368,-0.003 -0.83982,-0.29138 -1.3692,-0.64054 z M 30.659755,137.49215 c -0.05724,-0.27141 -0.03796,-0.41911 0.04284,-0.32825 0.08081,0.0908 0.17147,0.0376 0.20148,-0.11847 0.03001,-0.15603 0.325332,-0.48878 0.65627,-0.73946 l 0.601708,-0.45579 0.251326,0.65288 0.251326,0.65289 -0.231242,0.23546 c -0.538543,0.54837 -1.665806,0.6124 -1.773714,0.10068 z m 2.565823,-1.66778 c -0.3122,-0.62769 -0.310568,-0.63693 0.197213,-1.11698 l 0.349388,-0.3303 0.250352,0.69521 0.250351,0.69522 -0.38078,0.31567 c -0.311018,0.25785 -0.433131,0.21043 -0.666524,-0.25882 z m 1.881248,-1.26207 c 0,-1.8548 3.301742,-4.83884 6.932166,-6.26516 2.324622,-0.91328 3.234723,-2.01481 5.5087,-6.66731 0.355857,-0.72807 0.709013,-1.28717 0.784792,-1.24243 0.07578,0.0447 0.09396,-0.0477 0.04041,-0.20533 -0.133956,-0.39436 1.27293,-1.85233 1.580328,-1.6377 0.803189,0.56081 2.787747,-1.87628 3.50054,-4.29873 0.242849,-0.82533 0.468516,-1.11779 1.141945,-1.47994 1.105052,-0.59426 1.310937,-1.02966 1.500696,-3.1736 0.201437,-2.27588 0.516741,-3.64895 1.129543,-4.91888 0.467707,-0.96924 0.980558,-3.6672 0.980558,-5.158414 0,-0.791524 0.749661,-3.627838 0.958866,-3.627838 0.41785,0 0.538661,0.896446 0.279585,2.07457 -0.323327,1.470316 -0.336261,3.246622 -0.03324,4.566172 0.234187,1.01981 0.368231,1.15788 1.445733,1.48907 0.825364,0.2537 1.032762,1.06947 0.804924,3.1661 -0.207231,1.907 -0.05346,2.75813 0.703375,3.89324 0.440741,0.66103 0.558305,1.05414 0.558305,1.86686 v 1.02952 l -0.573108,0.43571 c -0.842146,0.64023 -1.216303,1.44758 -1.216303,2.6245 0,1.14653 -0.178077,1.47437 -0.652152,1.20059 -0.224205,-0.12948 -0.323891,-0.44828 -0.323891,-1.03581 0,-3.05297 -0.890186,-3.75537 -2.072197,-1.63504 -0.405998,0.72828 -0.812587,1.24049 -0.903527,1.13822 -0.09094,-0.10225 -0.118242,-0.0472 -0.06066,0.12225 0.169701,0.49961 -0.208599,0.84923 -1.828875,1.69024 -1.877826,0.9747 -2.79697,1.80352 -4.031847,3.63567 -1.829501,2.71437 -2.258088,3.25917 -3.52378,4.47933 -1.748532,1.68562 -3.687978,2.88864 -6.286596,3.89955 -2.902961,1.1293 -3.461182,1.45673 -4.956865,2.9075 -1.245841,1.20843 -1.387414,1.32343 -1.387414,1.12709 z M 204.5316,133.13746 c -0.2684,-0.13984 -1.29325,-0.46798 -2.27743,-0.72919 -1.35764,-0.36035 -1.88086,-0.62783 -2.16844,-1.1086 l -0.37901,-0.63366 -1.73575,-0.004 -1.73573,-0.004 -1.13871,-0.97085 c -1.01386,-0.86441 -2.52145,-3.05496 -2.52145,-3.66371 0,-1.4984 -1.62701,-4.5495 -3.53072,-6.62108 -0.82351,-0.89613 -1.65565,-2.03398 -1.8492,-2.52855 -1.17894,-3.01253 -2.18809,-1.54484 -3.40168,4.94737 -0.71931,3.84802 -1.01396,3.69107 -0.89687,-0.47768 0.0754,-2.68511 -0.0387,-3.29913 -0.6826,-3.67095 -0.49076,-0.28341 -1.20183,-1.82617 -2.01928,-4.38109 -1.05076,-3.28408 -1.71491,-4.59326 -2.6023,-5.12954 -1.53346,-0.92674 -2.87815,-5.09381 -3.11782,-9.66184 -0.0143,-0.27294 -0.0785,-0.437255 -0.14261,-0.365155 -0.60025,0.674989 -0.0217,-0.842458 1.08473,-2.845219 l 1.36998,-2.479752 0.43193,0.725275 c 0.23757,0.398905 0.6315,1.52445 0.87539,2.501208 0.2439,0.976769 0.59464,2.37757 0.77943,3.112902 0.47401,1.886341 2.17432,6.490821 2.77472,7.513991 0.27731,0.47261 0.47343,0.94989 0.43581,1.06064 -0.10057,0.2961 0.33198,0.37532 1.78804,0.32751 l 1.3014,-0.0427 4.35151,7.93796 c 2.39334,4.36588 4.35153,7.86472 4.35153,7.7752 0,-0.0895 -1.9005,-3.61883 -4.22332,-7.84294 -2.32284,-4.22409 -4.20021,-7.72226 -4.17193,-7.77371 0.30292,-0.55119 3.77857,2.04625 3.56792,2.66641 -0.0595,0.17514 -0.0233,0.21384 0.0856,0.0914 0.28008,-0.31495 1.69308,2.25694 2.22618,4.05196 1.08863,3.66561 2.79933,6.37737 6.66372,10.56311 0.80524,0.87221 1.73702,1.89706 2.07061,2.27746 0.3336,0.38039 0.66666,0.69164 0.74015,0.69164 0.31381,0 2.15474,2.70885 2.05014,3.01672 -0.0673,0.19802 -0.0387,0.24792 0.0711,0.1244 0.14375,-0.16166 1.81412,1.00726 2.13076,1.49112 0.17044,0.26045 -0.11203,0.29067 -0.55581,0.0595 z M 177.21259,93.243528 c -0.15734,-0.316323 -0.2385,-0.715195 -0.18034,-0.886389 0.0601,-0.177135 0.0129,-0.246427 -0.10972,-0.160824 -0.11851,0.08278 -0.54323,-0.46756 -0.94383,-1.222883 -0.53805,-1.014458 -0.62211,-1.276972 -0.3217,-1.004647 0.75269,0.682339 1.46265,1.798755 1.72025,2.705113 0.30805,1.083918 0.22832,1.359756 -0.16466,0.56963 z"
       id="path9883"
       transform="matrix(1,0,0,1.0801111,0,-2.0549955)" /></g></svg>
